<svg xmlns="http://www.w3.org/2000/svg" viewBox="0 0 76 76"><defs><style>.cls-1{fill:#f2b134;}.cls-2{fill:#50b99f;}.cls-3{fill:#113041;}.cls-4{fill:#048587;}.cls-5{fill:#cce5dd;}.cls-6{fill:none;}</style></defs><title>about-denim</title><g id="Layer_2" data-name="Layer 2"><g id="About"><circle class="cls-1" cx="38" cy="38" r="38"/><path class="cls-2" d="M61.42,38.37a.93.93,0,0,0-.05.1,14.63,14.63,0,0,1-2.64,3.64l-.07.08-.92.92-2.21,2.22L39.84,61,38,62.84h0L17.34,42.19a14.89,14.89,0,0,1-2.71-3.72.31.31,0,0,1-.05-.1,14.83,14.83,0,0,1,14.6-21.43,15.15,15.15,0,0,1,3,.58,14.76,14.76,0,0,1,5.67,3.24l.18.17a14.76,14.76,0,0,1,8.83-4,14,14,0,0,1,1.71-.05,14.67,14.67,0,0,1,10.12,4.33A14.83,14.83,0,0,1,61.42,38.37Z"/><polygon class="cls-3" points="39.84 20.93 39.84 61.01 38.12 62.73 38.12 20.93 39.84 20.93"/><path class="cls-4" d="M46.83,16.94V29.75L38,20.93A14.76,14.76,0,0,1,46.83,16.94Z"/><line class="cls-5" x1="36.41" y1="24.72" x2="34.63" y2="24.72"/><path class="cls-3" d="M36.41,25.17H34.63a.45.45,0,0,1,0-.9h1.78a.45.45,0,1,1,0,.9Z"/><line class="cls-5" x1="36.41" y1="33.28" x2="34.63" y2="33.28"/><path class="cls-3" d="M36.41,33.73H34.63a.45.45,0,0,1,0-.9h1.78a.45.45,0,0,1,0,.9Z"/><line class="cls-5" x1="36.41" y1="41.85" x2="34.63" y2="41.85"/><path class="cls-3" d="M36.41,42.3H34.63a.45.45,0,0,1,0-.9h1.78a.45.45,0,0,1,0,.9Z"/><line class="cls-5" x1="36.41" y1="50.41" x2="34.63" y2="50.41"/><path class="cls-3" d="M36.41,50.86H34.63a.45.45,0,0,1,0-.9h1.78a.45.45,0,1,1,0,.9Z"/><line class="cls-6" x1="36.41" y1="58.98" x2="34.63" y2="58.98"/><path class="cls-3" d="M36.86,59a.45.45,0,0,1-.45.45H34.58L34.19,59V59a.44.44,0,0,1,.44-.45h1.78A.45.45,0,0,1,36.86,59Z"/><path class="cls-4" d="M38,20.93l-8.82,8.82V16.94A14.74,14.74,0,0,1,38,20.93Z"/><circle class="cls-5" cx="36.41" cy="24.72" r="0.85"/><circle class="cls-5" cx="36.41" cy="33.28" r="0.85"/><circle class="cls-5" cx="36.41" cy="41.85" r="0.85"/><circle class="cls-5" cx="36.41" cy="50.41" r="0.85"/><circle class="cls-5" cx="36.41" cy="58.98" r="0.85"/><path class="cls-4" d="M22.83,38.37v7H20.48l-3.14-3.14a14.89,14.89,0,0,1-2.71-3.72l-.11-.1Z"/><polygon class="cls-3" points="22.83 38.37 18.68 41.85 14.63 38.47 14.52 38.37 22.83 38.37"/><path class="cls-4" d="M61.48,38.37l-.11.1a14.63,14.63,0,0,1-2.64,3.64l-.07.08-.92.92-2.21,2.22H53.17v-7Z"/><polygon class="cls-3" points="61.48 38.37 61.37 38.47 57.32 41.85 53.17 38.37 61.48 38.37"/></g></g></svg>