<svg xmlns="http://www.w3.org/2000/svg" xmlns:xlink="http://www.w3.org/1999/xlink" viewBox="0 0 385.3 383.81"><defs><style>.cls-1{fill:none;}.cls-2{fill:#50b99f;}.cls-3{fill:#cce5dd;}.cls-4,.cls-5{fill:#113041;}.cls-4{opacity:0.41;}.cls-6{clip-path:url(#clip-path);}</style><clipPath id="clip-path"><rect class="cls-1" x="19.3" y="18.59" width="267.77" height="244.66" transform="matrix(1, -0.05, 0.05, 1, -6.72, 7.68)"/></clipPath></defs><title>about-photo</title><g id="Layer_2" data-name="Layer 2"><g id="About"><rect class="cls-2" x="62.04" y="29.06" width="293.59" height="328.93" transform="translate(42.48 -37.54) rotate(11.43)"/><rect class="cls-3" x="81.01" y="41.22" width="267.77" height="244.66" transform="translate(36.66 -39.33) rotate(11.43)"/><polygon class="cls-4" points="323.4 350.61 188.5 357.23 32.37 325.66 91.58 32.63 213.53 26.65 308.44 45.87 323.4 350.61"/><rect class="cls-2" x="7.88" y="7" width="293.59" height="328.93" transform="translate(-8.22 7.79) rotate(-2.81)"/><rect class="cls-5" x="19.3" y="18.59" width="267.77" height="244.66" transform="matrix(1, -0.05, 0.05, 1, -6.72, 7.68)"/><rect class="cls-5" x="19.3" y="18.59" width="267.77" height="244.66" transform="matrix(1, -0.05, 0.05, 1, -6.72, 7.68)"/><g class="cls-6"><path class="cls-3" d="M186.3,172.45A47.79,47.79,0,1,0,134.72,174a111.57,111.57,0,0,0-82.4,103l222.33-6.58A111.58,111.58,0,0,0,186.3,172.45Z"/></g></g></g></svg>