<svg xmlns="http://www.w3.org/2000/svg" viewBox="0 0 76 76"><defs><style>.cls-1{fill:#f2b134;}.cls-2{fill:#113041;}.cls-3{fill:#50b99f;}.cls-4{fill:#cce5dd;}.cls-5{fill:#99c1b6;}.cls-6{fill:#048587;}</style></defs><title>about-coffe</title><g id="Layer_2" data-name="Layer 2"><g id="About"><circle class="cls-1" cx="38" cy="38" r="38"/><rect class="cls-2" x="27.6" y="62.51" width="20.8" height="1.49"/><polygon class="cls-3" points="54.34 16.46 54.18 17.94 53.76 21.66 50.95 46.91 50.79 48.4 49.14 63.26 26.86 63.26 25.21 48.4 25.05 46.91 22.24 21.66 21.82 17.94 21.66 16.46 54.34 16.46"/><rect class="cls-4" x="19.43" y="14.97" width="37.14" height="2.97"/><rect class="cls-4" x="24.63" y="12" width="26.74" height="2.97"/><rect class="cls-5" x="24.63" y="13.49" width="26.74" height="1.49"/><polygon class="cls-2" points="54.18 17.94 53.76 21.66 22.24 21.66 21.82 17.94 54.18 17.94"/><polygon class="cls-3" points="53.27 32.8 51.71 46.91 24.29 46.91 22.73 32.8 53.27 32.8"/><polygon class="cls-6" points="24.29 46.91 51.71 46.91 53.27 32.8 22.73 32.8 24.29 46.91"/><polygon class="cls-2" points="50.95 46.91 50.79 48.4 25.21 48.4 25.05 46.91 50.95 46.91"/></g></g></svg>