<svg xmlns="http://www.w3.org/2000/svg" viewBox="0 0 76 76"><defs><style>.cls-1{fill:#f2b134;}.cls-2{fill:#048587;}.cls-3{fill:#113041;}.cls-4,.cls-7{fill:#cce5dd;}.cls-5{fill:#50b99f;}.cls-6{opacity:0.15;}.cls-7{font-size:6.57px;font-family:RedHatText-Medium, Red Hat Text;font-weight:500;letter-spacing:0.23em;}</style></defs><title>about-music</title><g id="Layer_2" data-name="Layer 2"><g id="About"><circle class="cls-1" cx="38" cy="38" r="38"/><path class="cls-2" d="M64.93,38A16.9,16.9,0,0,1,48.55,54.89h-1a16.9,16.9,0,0,1,0-33.78h1A16.9,16.9,0,0,1,64.93,38Z"/><circle class="cls-3" cx="48.03" cy="38" r="6.5"/><circle class="cls-4" cx="48.03" cy="38" r="1.53"/><rect class="cls-5" x="11.07" y="19.79" width="36.42" height="36.42"/><path class="cls-3" d="M48.55,21.11V54.89h-1V21.11h1Z"/><g class="cls-6"><text class="cls-7" transform="translate(15.94 30.15)">IDLES</text><rect class="cls-4" x="16.45" y="32" width="0.79" height="4.6"/><path class="cls-4" d="M20.6,32.68v3.23h.91a1.62,1.62,0,0,0,0-3.23ZM19.81,32h1.68a2.3,2.3,0,1,1,0,4.6H19.81Z"/><polygon class="cls-4" points="26.18 32 26.97 32 26.97 35.91 29.42 35.91 29.42 36.6 26.18 36.6 26.18 32"/><polygon class="cls-4" points="31.79 32 35.08 32 35.08 32.67 32.58 32.67 32.58 33.95 34.33 33.95 34.33 34.61 32.58 34.61 32.58 35.93 35.11 35.93 35.11 36.6 31.79 36.6 31.79 32"/><path class="cls-4" d="M37.53,35.34a2.29,2.29,0,0,0,1.55.67c.61,0,1-.31,1-.73s-.23-.54-.84-.65l-.84-.15c-.8-.14-1.19-.54-1.19-1.17,0-.83.67-1.38,1.7-1.38a3,3,0,0,1,1.84.6l-.4.59a2.41,2.41,0,0,0-1.47-.53c-.55,0-.91.28-.91.65s.2.5.71.58l.81.14c.93.16,1.36.57,1.36,1.26,0,.84-.75,1.44-1.84,1.44a2.88,2.88,0,0,1-1.93-.74Z"/><rect class="cls-4" x="16.45" y="38.45" width="0.79" height="4.6"/><path class="cls-4" d="M20.6,39.13v3.23h.91a1.62,1.62,0,0,0,0-3.23Zm-.79-.68h1.68a2.3,2.3,0,1,1,0,4.59H19.81Z"/><polygon class="cls-4" points="26.18 38.45 26.97 38.45 26.97 42.36 29.42 42.36 29.42 43.04 26.18 43.04 26.18 38.45"/><polygon class="cls-4" points="31.79 38.45 35.08 38.45 35.08 39.12 32.58 39.12 32.58 40.4 34.33 40.4 34.33 41.05 32.58 41.05 32.58 42.37 35.11 42.37 35.11 43.04 31.79 43.04 31.79 38.45"/><path class="cls-4" d="M37.53,41.79a2.29,2.29,0,0,0,1.55.67c.61,0,1-.31,1-.73s-.23-.55-.84-.66l-.84-.14c-.8-.15-1.19-.54-1.19-1.17,0-.83.67-1.38,1.7-1.38a3,3,0,0,1,1.84.6l-.4.59A2.35,2.35,0,0,0,38.91,39c-.55,0-.91.27-.91.65s.2.5.71.57l.81.15c.93.16,1.36.56,1.36,1.26s-.75,1.44-1.84,1.44a2.88,2.88,0,0,1-1.93-.74Z"/><text class="cls-7" transform="translate(15.94 49.49)">IDLES</text></g></g></g></svg>