<svg xmlns="http://www.w3.org/2000/svg" viewBox="0 0 25.13 25.13"><defs><style>.cls-1{fill:#113041;}</style></defs><title>behance</title><g id="Layer_2" data-name="Layer 2"><g id="Work"><path class="cls-1" d="M17.37,11.81a1.52,1.52,0,0,0-1.51,1.13.19.19,0,0,0,.18.25h2.49a.2.2,0,0,0,.19-.22A1.28,1.28,0,0,0,17.37,11.81Z"/><path class="cls-1" d="M10.19,13.19H7.75a.17.17,0,0,0-.17.17v2.05a.17.17,0,0,0,.17.17h2.31c.37,0,1.07-.11,1.07-1.16C11.14,13.18,10.19,13.19,10.19,13.19Z"/><path class="cls-1" d="M7.75,11.81H10c.42,0,.79-.14.79-1.07s-.63-.93-.63-.93H7.75a.17.17,0,0,0-.17.17v1.66A.18.18,0,0,0,7.75,11.81Z"/><path class="cls-1" d="M12.57,0A12.57,12.57,0,1,0,25.13,12.57,12.59,12.59,0,0,0,12.57,0Zm2.84,8.58a.16.16,0,0,1,.17-.17h3.36a.16.16,0,0,1,.16.17v.76a.17.17,0,0,1-.16.17H15.58a.17.17,0,0,1-.17-.17ZM13,14.53c0,2.73-2.85,2.64-2.85,2.64H5.77a.23.23,0,0,1-.24-.23V8.45a.23.23,0,0,1,.24-.23h4.42a2.28,2.28,0,0,1,2.53,2.38,1.58,1.58,0,0,1-.83,1.54.14.14,0,0,0,0,.25C13.13,12.79,13,14.53,13,14.53Zm7.43-.45a.31.31,0,0,1-.32.3h-4a.33.33,0,0,0-.32.37,1.46,1.46,0,0,0,1.55,1.19c1,0,1.32-.46,1.4-.74A.32.32,0,0,1,19.1,15h1a.33.33,0,0,1,.32.36c-.28,2.18-3.05,2-3.05,2a3.17,3.17,0,0,1-3.43-3.42,3.36,3.36,0,0,1,3.43-3.44C20.34,10.5,20.5,13.16,20.47,14.08Z"/></g></g></svg>