<svg xmlns="http://www.w3.org/2000/svg" viewBox="0 0 1109.53 684.23"><defs><style>.cls-1{fill:#99c1b6;opacity:0.5;}.cls-2{fill:#50b99f;}.cls-3{fill:#048587;}.cls-4{fill:#113041;}</style></defs><title>contact</title><g id="Layer_2" data-name="Layer 2"><g id="Layer_1-2" data-name="Layer 1"><polygon class="cls-1" points="1105.56 37.93 1109.53 35.85 35.85 441.28 343.74 389.67 405.64 684.18 405.64 684.22 405.65 684.22 405.65 684.23 405.65 684.21 563.04 539.25 589.77 514.59 792.76 637.18 820.16 653.7 1109.54 35.85 1105.56 37.93"/><polygon class="cls-2" points="1073.68 0 1011.88 56.91 553.92 478.74 527.18 503.4 369.79 648.37 369.79 367.57 1027.18 24.28 1073.68 0"/><polygon class="cls-3" points="1027.18 24.28 1011.88 56.91 756.91 601.33 553.92 478.74 527.18 503.4 369.79 408.4 369.79 367.57 1027.18 24.28"/><polygon class="cls-2" points="1073.68 0 784.31 617.85 756.91 601.33 553.92 478.74 369.79 367.57 1027.18 24.28 1073.68 0"/><polygon class="cls-2" points="1073.68 0 307.89 353.81 0 405.43 1073.68 0"/><polygon class="cls-4" points="369.8 648.38 307.89 353.81 1073.68 0 369.8 367.58 369.8 648.38"/></g></g></svg>