<svg xmlns="http://www.w3.org/2000/svg" viewBox="0 0 25.13 25.13"><defs><style>.cls-1{fill:#113041;}</style></defs><title>dribble</title><g id="Layer_2" data-name="Layer 2"><g id="Work"><path class="cls-1" d="M13.7,13.83a9.93,9.93,0,0,0-4.85,3.61.12.12,0,0,0,0,.17,6.22,6.22,0,0,0,6,.78.11.11,0,0,0,.07-.13,23.51,23.51,0,0,0-1.11-4.36A.11.11,0,0,0,13.7,13.83Z"/><path class="cls-1" d="M13.19,12.57a.13.13,0,0,0,.07-.16q-.18-.4-.36-.78a.12.12,0,0,0-.14-.06,23.48,23.48,0,0,1-6.32.91.13.13,0,0,0-.11.12A5.89,5.89,0,0,0,7.7,16.5a.12.12,0,0,0,.18,0A11.21,11.21,0,0,1,13.19,12.57Z"/><path class="cls-1" d="M13.46,9.77a.13.13,0,0,0,.15.05,9.32,9.32,0,0,0,2.86-2,.14.14,0,0,0,0-.18,6.28,6.28,0,0,0-3.88-1.35,6.52,6.52,0,0,0-1.1.1.11.11,0,0,0-.07.19A22.67,22.67,0,0,1,13.46,9.77Z"/><path class="cls-1" d="M6.65,11.12a22.19,22.19,0,0,0,5.44-.75.11.11,0,0,0,.07-.17A20.79,20.79,0,0,0,10,7a.1.1,0,0,0-.14,0,6.25,6.25,0,0,0-3.3,4A.11.11,0,0,0,6.65,11.12Z"/><path class="cls-1" d="M18.61,13.73a10.62,10.62,0,0,0-3.32-.23.12.12,0,0,0-.1.16,25.75,25.75,0,0,1,1,3.81.12.12,0,0,0,.18.07,6.26,6.26,0,0,0,2.33-3.67A.12.12,0,0,0,18.61,13.73Z"/><path class="cls-1" d="M12.57,0A12.57,12.57,0,1,0,25.13,12.57,12.59,12.59,0,0,0,12.57,0Zm-.68,20.15a7.61,7.61,0,1,1,8.27-8.27A7.61,7.61,0,0,1,11.89,20.15Z"/><path class="cls-1" d="M17.41,8.82A10.77,10.77,0,0,1,14.23,11a.12.12,0,0,0-.06.15c.15.32.3.64.44,1a.11.11,0,0,0,.12.07,11.55,11.55,0,0,1,3.95.15.11.11,0,0,0,.14-.12,6.18,6.18,0,0,0-1.24-3.41A.11.11,0,0,0,17.41,8.82Z"/></g></g></svg>