<svg xmlns="http://www.w3.org/2000/svg" viewBox="0 0 480.33 360.25"><defs><style>.cls-1{fill:#50b99f;}.cls-2{fill:#113041;}.cls-3{fill:#048587;}.cls-4{fill:#99c1b6;}.cls-5{fill:#cce5dd;}</style></defs><title>Asset 1</title><g id="Layer_2" data-name="Layer 2"><g id="Home"><path class="cls-1" d="M67,0H463.18a0,0,0,0,1,0,0V274.48a0,0,0,0,1,0,0H67a15.59,15.59,0,0,1-15.59-15.59V15.59A15.59,15.59,0,0,1,67,0Z"/><path class="cls-2" d="M463.18,0h0a17.15,17.15,0,0,1,17.15,17.15V257.32a17.15,17.15,0,0,1-17.15,17.15h0a0,0,0,0,1,0,0V0A0,0,0,0,1,463.18,0Z"/><rect class="cls-3" x="240.17" y="274.48" width="68.62" height="68.62"/><polygon class="cls-2" points="308.79 274.48 240.17 274.48 240.17 291.63 308.79 291.63 308.79 343.1 325.94 343.1 325.94 291.63 325.94 274.48 308.79 274.48"/><path class="cls-1" d="M413.62,337.38a22.87,22.87,0,0,0-22.87,22.87h45.74A22.87,22.87,0,0,0,413.62,337.38Z"/><path class="cls-2" d="M421.24,345A15.24,15.24,0,0,0,406,360.25h30.49A15.25,15.25,0,0,0,421.24,345Z"/><rect class="cls-2" x="68.62" y="343.1" width="291.63" height="17.15"/><rect class="cls-1" y="343.1" width="291.63" height="17.15"/><path class="cls-4" d="M35.22,339.28H18.15a1,1,0,0,0-1,1v2.82H36.22v-2.82A1,1,0,0,0,35.22,339.28Z"/><path class="cls-4" d="M45.26,339.28a1,1,0,0,0-1,1v2.82H63.32v-2.82a1,1,0,0,0-1-1Z"/><path class="cls-4" d="M72.37,339.28a1,1,0,0,0-1,1v2.82H90.43v-2.82a1,1,0,0,0-1-1Z"/><path class="cls-4" d="M99.48,339.28a1,1,0,0,0-1,1v2.82h19.06v-2.82a1,1,0,0,0-1-1Z"/><path class="cls-4" d="M126.58,339.28a1,1,0,0,0-1,1v2.82h19.06v-2.82a1,1,0,0,0-1-1Z"/><path class="cls-4" d="M153.69,339.28a1,1,0,0,0-1,1v2.82h19.06v-2.82a1,1,0,0,0-1-1Z"/><path class="cls-4" d="M180.8,339.28a1,1,0,0,0-1,1v2.82h19.06v-2.82a1,1,0,0,0-1-1Z"/><path class="cls-4" d="M207.91,339.28a1,1,0,0,0-1,1v2.82H226v-2.82a1,1,0,0,0-1-1Z"/><path class="cls-4" d="M235,339.28a1,1,0,0,0-1,1v2.82h19.07v-2.82a1,1,0,0,0-1-1Z"/><path class="cls-4" d="M279.2,339.28H262.13a1,1,0,0,0-1,1v2.82h19.06v-2.82A1,1,0,0,0,279.2,339.28Z"/><path class="cls-5" d="M29.5,339.28H12.43a1,1,0,0,0-1,1v2.82H30.5v-2.82A1,1,0,0,0,29.5,339.28Z"/><path class="cls-5" d="M39.54,339.28a1,1,0,0,0-1,1v2.82H57.61v-2.82a1,1,0,0,0-1-1Z"/><path class="cls-5" d="M66.65,339.28a1,1,0,0,0-1,1v2.82H84.71v-2.82a1,1,0,0,0-1-1Z"/><path class="cls-5" d="M93.76,339.28a1,1,0,0,0-1,1v2.82h19.06v-2.82a1,1,0,0,0-1-1Z"/><path class="cls-5" d="M120.87,339.28a1,1,0,0,0-1,1v2.82h19.06v-2.82a1,1,0,0,0-1-1Z"/><path class="cls-5" d="M148,339.28a1,1,0,0,0-1,1v2.82H166v-2.82a1,1,0,0,0-1-1Z"/><path class="cls-5" d="M175.08,339.28a1,1,0,0,0-1,1v2.82h19.06v-2.82a1,1,0,0,0-1-1Z"/><path class="cls-5" d="M202.19,339.28a1,1,0,0,0-1,1v2.82h19.06v-2.82a1,1,0,0,0-1-1Z"/><path class="cls-5" d="M229.3,339.28a1,1,0,0,0-1,1v2.82h19.06v-2.82a1,1,0,0,0-1-1Z"/><path class="cls-5" d="M273.48,339.28H256.41a1,1,0,0,0-1,1v2.82h19.06v-2.82A1,1,0,0,0,273.48,339.28Z"/><path class="cls-3" d="M51.46,223v35.88a15.59,15.59,0,0,0,15.59,15.59H463.18V223Z"/><circle class="cls-5" cx="257.32" cy="247.79" r="7.62"/><circle class="cls-5" cx="257.32" cy="247.79" r="7.62"/></g></g></svg>