<svg xmlns="http://www.w3.org/2000/svg" viewBox="0 0 25.01 25.01"><defs><style>.cls-1{fill:#113041;}</style></defs><title>instagram</title><g id="Layer_2" data-name="Layer 2"><g id="Work"><path class="cls-1" d="M15.71,6H9.45A3.25,3.25,0,0,0,6.2,9.27v6.26a3.25,3.25,0,0,0,3.25,3.26h6.26A3.26,3.26,0,0,0,19,15.53V9.27A3.26,3.26,0,0,0,15.71,6Zm-3.1,10.37a3.89,3.89,0,1,1,3.88-3.89A3.89,3.89,0,0,1,12.61,16.39Zm4.11-7.11a.93.93,0,0,1,0-1.85.93.93,0,1,1,0,1.85Z"/><path class="cls-1" d="M12.61,10A2.49,2.49,0,1,0,15.1,12.5,2.49,2.49,0,0,0,12.61,10Z"/><path class="cls-1" d="M12.5,0A12.51,12.51,0,1,0,25,12.5,12.52,12.52,0,0,0,12.5,0Zm8,15.53a4.74,4.74,0,0,1-4.74,4.74H9.45a4.74,4.74,0,0,1-4.74-4.74V9.27A4.74,4.74,0,0,1,9.45,4.53h6.26a4.74,4.74,0,0,1,4.74,4.74Z"/></g></g></svg>