<svg xmlns="http://www.w3.org/2000/svg" viewBox="0 0 34 28.47"><defs><style>.cls-1{fill:#113041;}</style></defs><title>logo-black</title><g id="Layer_2" data-name="Layer 2"><g id="Work"><path class="cls-1" d="M33.62,7.44A10.2,10.2,0,0,0,23.8,0a10.07,10.07,0,0,0-3.4.58A10.21,10.21,0,0,1,27.2,10v4.24H34v-4A10.05,10.05,0,0,0,33.62,7.44Z"/><path class="cls-1" d="M20.39.59A10.22,10.22,0,0,0,14,7.44a10.05,10.05,0,0,0-.38,2.76v7.94a3.49,3.49,0,0,1-3.19,3.53,3.4,3.4,0,0,1-3.61-3.4v-4H0v4A10.2,10.2,0,0,0,20,21a10.13,10.13,0,0,0,.38-2.77V10.33a3.5,3.5,0,0,1,3-3.51,3.38,3.38,0,0,1,1.8.29A10.12,10.12,0,0,0,20.39.59Z"/><path class="cls-1" d="M25.21,7.11a3.3,3.3,0,0,0-1.4-.31,3.35,3.35,0,0,0-2.14.76,10.31,10.31,0,0,0,.16-1.77A10.19,10.19,0,0,0,20.4.59,10.16,10.16,0,0,1,25.21,7.11Z"/></g></g></svg>