<svg xmlns="http://www.w3.org/2000/svg" viewBox="0 0 91.01 91.01"><defs><style>.cls-1{fill:#113041;}</style></defs><title>mail-me</title><g id="Layer_2" data-name="Layer 2"><g id="Tablet"><path class="cls-1" d="M45.5,48a2.52,2.52,0,0,1-1.45-.46L22,31.87V61.49H69V31.87L47,47.54A2.47,2.47,0,0,1,45.5,48Z"/><polygon class="cls-1" points="63.65 29.52 27.36 29.52 45.5 42.44 63.65 29.52"/><path class="cls-1" d="M45.5,0A45.51,45.51,0,1,0,91,45.5,45.5,45.5,0,0,0,45.5,0ZM74,64a2.5,2.5,0,0,1-2.5,2.5H19.53A2.5,2.5,0,0,1,17,64V27a2.5,2.5,0,0,1,2.5-2.5H71.47A2.5,2.5,0,0,1,74,27Z"/></g></g></svg>