<svg xmlns="http://www.w3.org/2000/svg" viewBox="0 0 45.1 37.77"><defs><style>.cls-1{fill:#fff;}</style></defs><title>monogram</title><g id="Layer_2" data-name="Layer 2"><g id="Layer_6" data-name="Layer 6"><path class="cls-1" d="M44.59,9.87A13.55,13.55,0,0,0,27.05.77a13.51,13.51,0,0,1,9,12.5,2.17,2.17,0,0,1,0,.26v5.36h9V13.53A13.37,13.37,0,0,0,44.59,9.87Z"/><path class="cls-1" d="M27,.78a13.51,13.51,0,0,0-8.49,9.09A13.37,13.37,0,0,0,18,13.53V24.24a4.51,4.51,0,0,1-9,0V18.89H0v5.35a13.53,13.53,0,0,0,27.06,0V13.53a4.49,4.49,0,0,1,6.37-4.1A13.43,13.43,0,0,0,27,.78Z"/></g></g></svg>