<svg xmlns="http://www.w3.org/2000/svg" viewBox="0 0 25.17 25.17"><defs><style>.cls-1{fill:#113041;}</style></defs><title>twitter</title><g id="Layer_2" data-name="Layer 2"><g id="Work"><path class="cls-1" d="M12.59,0A12.59,12.59,0,1,0,25.17,12.59,12.61,12.61,0,0,0,12.59,0Zm7.29,8a.36.36,0,0,1-.08.23,5.83,5.83,0,0,1-1.16,1.22c-.07,0-.18.1-.18.2a9,9,0,0,1-2.39,6.6A9,9,0,0,1,5.78,17.61l-.52-.31s-.08-.07,0-.09.07,0,.2,0a5.85,5.85,0,0,0,2.49-.32A3.81,3.81,0,0,0,9.56,16l0,0-.33,0a3.25,3.25,0,0,1-2.41-2c0-.08,0-.12.09-.1a3.48,3.48,0,0,0,1.14,0,1.94,1.94,0,0,1-.39-.12,3.12,3.12,0,0,1-1.91-2.47c0-.13,0-.23,0-.35s0-.1.12-.06A3,3,0,0,0,7,11.13c-.13-.1-.25-.22-.37-.33a3.06,3.06,0,0,1-.52-3.62c.06-.09.09-.09.17,0a9.36,9.36,0,0,0,6,3.08c.07,0,.07,0,.06-.07a3.14,3.14,0,0,1,0-1.26A3,3,0,0,1,13,7.72a3.2,3.2,0,0,1,1-.82,3.11,3.11,0,0,1,1.24-.35,2.9,2.9,0,0,1,1.3.21,3.14,3.14,0,0,1,.86.52l.15.16a.11.11,0,0,0,.12,0,7.35,7.35,0,0,0,1.76-.67.11.11,0,0,1,.08,0,.05.05,0,0,1,0,.08,2.82,2.82,0,0,1-.49.9c-.14.17-.49.61-.73.65A6.43,6.43,0,0,0,19.82,8c.06,0,.06,0,.06,0Z"/></g></g></svg>