<svg xmlns="http://www.w3.org/2000/svg" viewBox="0 0 122.44 228.39"><defs><style>.cls-1{fill:#50b99f;}.cls-2{fill:#113041;}.cls-3,.cls-5,.cls-6{fill:#048587;}.cls-4{fill:#99c1b6;}.cls-5{stroke:#99c1b6;}.cls-5,.cls-6{stroke-linecap:round;stroke-miterlimit:10;stroke-width:2px;}.cls-6{stroke:#cce5dd;}</style></defs><title>home_image_phone</title><g id="Layer_2" data-name="Layer 2"><g id="home_about" data-name="home/about"><rect class="cls-1" x="5" y="5" width="106.51" height="218.39" rx="13.58"/><rect class="cls-2" x="5.93" width="116.51" height="228.39" rx="18.58"/><rect class="cls-3" width="116.51" height="228.39" rx="18.58"/><path class="cls-1" d="M97.93,5H84.83V8.48a6.35,6.35,0,0,1-6.35,6.35H38a6.35,6.35,0,0,1-6.35-6.35V5H18.58A13.58,13.58,0,0,0,5,18.58V209.81a13.58,13.58,0,0,0,13.58,13.58H97.93a13.58,13.58,0,0,0,13.58-13.58V18.58A13.58,13.58,0,0,0,97.93,5Z"/><path class="cls-3" d="M31.68,2.83H84.83a0,0,0,0,1,0,0V8.48a6.35,6.35,0,0,1-6.35,6.35H38a6.35,6.35,0,0,1-6.35-6.35V2.83A0,0,0,0,1,31.68,2.83Z"/><circle class="cls-3" cx="69.26" cy="8.83" r="1.64"/><circle class="cls-4" cx="69.26" cy="8.83" r="1.04"/><line class="cls-5" x1="52.32" y1="8.83" x2="64.19" y2="8.83"/><line class="cls-6" x1="39.62" y1="219.6" x2="76.89" y2="219.6"/></g></g></svg>